<?xml version="1.0" encoding="utf-8"?>
<!-- Generator: Adobe Illustrator 26.4.1, SVG Export Plug-In . SVG Version: 6.00 Build 0)  -->
<svg version="1.1" id="Capa_1" xmlns="http://www.w3.org/2000/svg" xmlns:xlink="http://www.w3.org/1999/xlink" x="0px" y="0px"
	 viewBox="0 0 2000 2000" style="enable-background:new 0 0 2000 2000;" xml:space="preserve">
<style type="text/css">
	.st0{fill:#FEFEFE;}
	.st1{fill:#FFB7C5;}
	.st2{font-family:'OttoAttacType-Regular';}
	.st3{font-size:667.2908px;}
	.st4{fill:none;stroke:#1D1D1B;stroke-width:8;}
	.st5{font-size:552.9783px;}
</style>
<g>
	<path class="st0" d="M1335.84,984.5c-23.13,164.61-46.3,329.21-69.25,493.82c-0.78,5.59-2.04,6.69-7.63,6.68
		c-329.19-0.17-658.4-0.17-987.63,0c-5.59,0-6.53-1.09-5.75-6.68c46.44-329.21,92.71-658.42,138.8-987.63
		c0.78-5.59,2.03-6.69,7.62-6.68c329.19,0.17,658.4,0.17,987.63,0c5.59,0,6.54,1.09,5.75,6.68
		C1382.08,655.29,1358.98,819.89,1335.84,984.5z"/>
	<path class="st1" d="M705.54,774.37c2.16,3.79,0.74,7.11,0.17,10.14c-4.81,25.48-6.31,50.49-0.63,74.62
		c8.4,35.67,27.66,63.71,54.93,86.07c13.13,10.76,26.48,21.35,41.6,29.54c28.45,15.42,59.05,25.98,91.9,32.76
		c32.79,6.77,66.5,6.72,100.54,5.68c23.18-0.71,46.42-4.97,69.48-11.63c3.3-0.95,7.32-2.81,9.2-0.32c1.64,2.17-1.57,5.63-3.05,8.17
		c-23.98,41.15-57.73,69.25-103.82,78.23c-34.19,6.66-67.53,4.41-100.77,1.23c-19.97-1.91-39.82-4.49-60.03-5.48
		c-13.46-0.65-26.71-2.22-40.35-2.16c-19.36,0.08-38.21,3.42-56.39,13.36c-6.79,3.71-7.6-0.94-8.58-4.89
		c-4.26-17.18-8.39-34.4-12.35-51.68c-7.29-31.79-14.85-63.49-18.03-96.56c-3.9-40.64-0.63-81.62,13.4-122.7
		C687.96,803.55,695.37,788.77,705.54,774.37z"/>
	<path class="st1" d="M1007.48,1098.89c-1.08,16.25-6.27,31.99-10.1,47.83c-10.31,42.68-38.61,67.09-80.05,78.91
		c-29.95,8.54-59.95,12.94-90.11,15.84c-17.01,1.63-33.91,1.87-50.85,3.51c-16.24,1.58-27.83-4.09-38.19-13.71
		c-16.6-15.42-29.74-33.37-34.52-56.52c-3.73-18.07-0.69-36.23,12.69-53.05c3.14-3.95,6.93-6.89,11.36-6.97
		c10.3-0.18,20.57-0.48,30.71,1c23.13,3.36,46.32,6.58,69.5,9.76c31.29,4.3,63.31,2.24,95.27-1.87
		c25.02-3.22,50.06-11.23,74.35-21.47C1000.63,1100.84,1003.63,1099.1,1007.48,1098.89z"/>
	<path class="st1" d="M673.16,1134.47c-1.03,7.31-1.72,12.2-2.4,17.1c-1.21,8.71-3.51,10.5-11.9,7.55
		c-11.24-3.96-22.04-8.79-32.49-14.26c-15.47-8.09-30.18-17.13-43.18-28.51c-20.39-17.85-32.21-41.03-38.67-68.04
		c-5.48-22.91-9.34-46.23-10.22-70.27c-0.75-20.53-0.34-41.29,0.45-62.04c0.65-17.07-0.44-33.75-2.18-50.35
		c-0.3-2.88-1.48-6.15,1.27-8.44c2.63-2.19,5.14,0.2,7.38,1.19c28.01,12.36,56.71,23.58,75.64,48.63
		c9.66,12.78,15.68,27.32,19.83,42.88c11.47,43.01,22.07,86.36,35.44,128.63C678,1097.09,673.03,1117.36,673.16,1134.47z"/>
	<path class="st1" d="M869.37,652.06c-21.6,3.02-42.8,8.71-63.81,15.79c-43.57,14.69-81.77,38.06-110.2,76.69
		c-17.17,23.33-28.75,48.77-37.07,75.45c-8.79,28.18-13.54,56.61-18.35,85.07c-0.37,2.2,0.55,5.5-2.84,6.26
		c-2.89,0.64-3.68-2.39-4.83-4.25c-9.29-14.99-21.01-27.95-32.9-40.76c-17.28-18.62-39.24-31.04-62.55-41.58
		c-7.17-3.24-7.52-3.52-0.27-9.25c35.18-27.82,61.04-62.42,78.56-102.02c6.42-14.51,12.46-23.51,29.19-26.46
		c21.51-3.78,42.84-11.2,64.33-16.36c22.01-5.29,44.09-10.13,66.18-14.51C806.72,649.82,838.15,649.75,869.37,652.06z"/>
	<path class="st1" d="M817.84,745.75c-24.5,17.15-33.55,41.34-38.79,67.5c-3.97,19.82-7.01,39.73-6.71,59.23
		c0.23,15.06,2.89,29.91,6.64,44.22c0.94,5.1-1,6.83-5.87,5.11c-13.75-12.88-25.92-27.06-34.59-44.1
		c-0.64-4.34-2.94-7.82-4.81-11.52c-6.57-16.77-9.1-34.78-7.11-53.63c3.15-29.85,7.35-59.73,11.19-89.6
		c0.35-2.71-0.29-5.66,4.46-6.87c21.25-5.39,41.72-14.06,61.9-23.55c38.22-17.97,78.39-27.58,117.44-41.93
		c6.22-2.29,12.38-8.25,18.8-6.09c5.85,1.97,6.77,9.15,10.25,13.75c18.96,25.11,41.94,46.08,67.5,64.46
		c-0.36,3.71-2.32,4.28-5.18,3.09c-16.73-6.15-32.92-13.47-50.7-17.41c-29.45-6.53-59.2-6.93-89.78,7.86
		c-11.23,5.43-22.57,10.53-33.86,15.79C830.73,734.99,824.06,739.98,817.84,745.75z"/>
	<path class="st1" d="M1101.4,805.77c12.13,32.98,9.54,68.52,0.82,104.15c-9.64,39.36-44.45,68.96-85.5,76.83
		c-17.79,3.41-34.95,2.18-52.24,1.79c-12.47-0.28-24.87-0.96-37.59,1.21c-4.36,0.75-6.42-0.06-5.84-5.18
		c2.61-22.88-4.19-42.92-11.64-62.72c-0.63-1.68-1.17-3.4-1.75-5.11c-0.41-1.2-1.19-2.51,0.05-3.73c1.44-1.43,3.11-0.98,4.62-0.49
		c5.96,1.9,11.89,3.84,17.85,5.74c33.43,10.65,64.9-2.42,96.6-19.78c20.46-11.2,33.07-26.45,40.03-47.99
		c6.85-21.19,9.61-41.4,3.04-61.1c-0.9-2.7-1.67-5.45-2.51-8.17c-0.89-5.46-3.42-10.1-5.97-14.71c-0.88-1.59-3.66-2.83-0.61-5.13
		c2.26-1.71,4.24-0.53,5.63,1.03c2.68,3.01,5.32,6.02,9.24,7.6c6.74,6.39,11.75,14.31,18.21,20.95v0
		C1096.75,795.65,1097.86,801.43,1101.4,805.77z"/>
	<path class="st1" d="M1133.63,831.9c14.18,26.43,19.22,56.33,22.22,86.93c2.64,26.92,3.92,54.11,2.85,81.68
		c-0.16,4.04,0.37,8.01,0.44,12.04c0.46,26.45-10.46,50.05-26.17,73.18c-11.34,16.7-24.71,29.65-43.08,37.47
		c-9.82,4.18-19.84,7.01-29.96,7.1c-13,0.11-26.25,1.27-39.63-1.69c9.36-13.41,18.39-26.31,27.39-39.24
		c24.55-35.25,44.03-72.51,59.36-111.65c14.89-38.01,19.84-76.41,22.2-114.92c0.63-10.37-1.45-20.52-2.29-30.77
		c-0.56-1.65-0.48-3.38,1.67-3.92C1131.8,827.3,1132.43,830.05,1133.63,831.9z"/>
	<path class="st1" d="M851.29,970.64c-22.35-22.8-44.77-45.54-54.64-77.76c-4.43-14.48-7.08-29.36-4.6-45.48
		c2.51-16.29,3.78-32.6,8.1-48.85c0.88-3.31,1.95-6.5,4.55-9.04c22.61-22.04,46.16-42.65,75.99-53.34c3.64-1.3,9.18-3.87,10.8-2.48
		c3.18,2.73-1.51,6.95-3.13,10.24c-11.69,23.68-20.66,47.83-23.84,73.1c-4.12,32.67,3.83,61.31,18.83,87.46
		c6.56,11.43,11.85,23.09,9.34,37.84c-0.96,5.62-2.95,10.68-6.85,15.23c-5.2,5.52-10.59,10.83-16.37,15.74
		c-7.79,6.62-8.09,6.65-14.67,0.28C853.68,972.52,852.53,971.53,851.29,970.64z"/>
	<path class="st1" d="M1022.38,878.68c-51.02,35.24-98.12,35.41-129.22-8.76c-4.54-6.44-1.63-14.19,0.7-21.1
		c5.57-16.55,14.88-31.76,24.95-46.53c1.36-2,2.91-4.84,5.85-4.43c3.83,0.53,3.13,4.21,3.37,6.94
		c2.16,24.83,11.24,45.55,31.76,58.67c15.77,10.08,34.62,13.13,54.28,13.62C1016.67,877.16,1019.52,876.62,1022.38,878.68z"/>
	<path class="st1" d="M888.86,820.65c-0.25-19.57,1.87-37.48,12.58-54.57c6.71-10.71,13.85-21.21,20.68-31.86
		c3.56-5.56,7.18-8.09,13.67-5.64c13.93,5.27,30.06,3.56,44.67,7.15c15.49,3.8,29.15,10.71,43.06,17.33
		c1.33,0.64,3.22,1.55,2.55,3.35c-0.95,2.56-3.28,1.64-5.02,1.53c-8.86-0.59-17.64-1.73-26.57-1.85
		c-37.06-0.51-66.44,17.21-90.52,47.51C899.68,808.97,896.27,815.13,888.86,820.65z"/>
	<path class="st1" d="M1021.72,808.15c-9.47-7.34-17.53-13.54-29.01-14.84c-12.12-1.37-22.97,7.16-26.75,18.98
		c-4.11,12.86-1.04,24.5,1.63,37.28c-6.41-1.56-9.18-5.91-11.9-9.79c-8.98-12.82-15.51-27.29-8.26-44.48
		c9.03-21.43,39.72-35.75,59.36-21.22C1016.87,781.54,1024.94,790.98,1021.72,808.15z"/>
	<path class="st1" d="M1001.29,828.24c5.74-0.71,11.54-0.84,17.2-2.26c11.52-2.87,17.56-9.81,19.44-21.19
		c1.04-6.29,1.06-12.45,0.19-18.49c-0.23-1.58-0.65-3.23,1.46-4.25c2.07-1,2.88,0.54,3.84,1.66c8.28,9.65,9.06,21.33,7.6,34.8
		c-2.01,18.49-13,29.72-27.88,39.74c-10.5,7.08-19.28,3.01-26.2-1.46c-7.91-5.1-14.21-13.02-12.13-24.89
		c0.58-3.28,2.14-4.17,5.1-4.05c3.77,0.16,7.6,0.04,11.4,0.04C1001.3,828.01,1001.3,828.13,1001.29,828.24z"/>
	<path class="st1" d="M1075.12,771.52c-6.27-0.86-7.19-8.75-14.42-9.87c3.06,6.74,7.89,11.86,6.63,19.56
		c-4.28-8.05-8.45-16.18-14.8-22.76c-0.9-3.76,0.83-4.48,4-3.53c5.66,3.52,12.02,6.17,16.07,11.69
		C1073.83,768.02,1076.73,768.42,1075.12,771.52z"/>
	<path class="st1" d="M851.29,970.64c0.54,0,1.2-0.18,1.6,0.04c10.69,5.72,10.66,5.7,21.54-3.73c3.72-3.22,7.59-6.26,11.4-9.39
		c-4.65,9.26-12.99,14.97-20.94,20.99c-3.12,2.36-5.74,1.18-7.77-1.1C855.12,975.22,853.22,972.92,851.29,970.64z"/>
	<path class="st1" d="M1075.12,771.52c-0.84-1.64-1.67-3.27-2.51-4.91c9.56,5.9,16.29,14.31,21.22,24.33
		C1085.08,786.87,1082.09,777.29,1075.12,771.52z"/>
	<path class="st1" d="M817.84,745.75c5.5-7,11.73-12.74,20.78-13.67C831.69,736.63,824.77,741.19,817.84,745.75z"/>
	<path class="st1" d="M1133.63,831.9c-2.22,0.01-3.68-6.29-6.68,0.12c-0.42-1.41-0.88-2.8-1.27-4.23c-0.4-1.45-1.04-2.99,1-4.17
		c2.24-1.3,3.68-0.32,4.45,1.42C1132.12,827.25,1134.32,828.91,1133.63,831.9z"/>
	<path class="st1" d="M1101.4,805.77c-5.19-3.35-6.27-9.16-7.58-14.82C1098.08,794.85,1100.16,800.06,1101.4,805.77z"/>
	<path class="st1" d="M1012.96,725.83c1.92-0.66,4.21-0.59,5.18-3.09c2.98-0.18,5.34,1.55,3.4,4.04
		C1018.23,731.03,1015.65,727.09,1012.96,725.83z"/>
	<path class="st1" d="M1056.54,754.92c-2.14,0.25-3.6,1.27-4,3.53c-1.93-2.09-3.86-4.19-7.01-7.61
		C1051.46,751.09,1054.05,752.91,1056.54,754.92z"/>
	<path class="st1" d="M773.11,921.81c3.84,0.5,5.38-1.69,5.87-5.11c1.04,2.67,3.89,5.75,0.53,8.34
		C776.27,927.53,774.49,924.22,773.11,921.81z"/>
	<path class="st1" d="M733.71,866.19c3.08,3.08,5.71,6.38,4.81,11.52C736.16,874.26,733.71,870.86,733.71,866.19z"/>
</g>
<g>
	<text transform="matrix(0.9903 0 -0.1392 0.9903 44.4844 1147.671)" class="st2 st3">R</text>
	<text transform="matrix(0.9903 0 -0.1392 0.9903 44.4844 1147.671)" class="st4 st2 st3">R</text>
</g>
<g>
	<text transform="matrix(0.9903 0 -0.1392 0.9903 1170.0624 1154.8215)" class="st2 st5">ses</text>
	<text transform="matrix(0.9903 0 -0.1392 0.9903 1170.0624 1154.8215)" class="st4 st2 st5">ses</text>
</g>
</svg>
