<?xml version="1.0" encoding="utf-8"?>
<!-- Generator: Adobe Illustrator 26.4.1, SVG Export Plug-In . SVG Version: 6.00 Build 0)  -->
<svg version="1.1" id="Capa_1" xmlns="http://www.w3.org/2000/svg" xmlns:xlink="http://www.w3.org/1999/xlink" x="0px" y="0px"
	 viewBox="0 0 1920 1080" style="enable-background:new 0 0 1920 1080;" xml:space="preserve">
<style type="text/css">
	.st0{fill:#FFFFFF;stroke:#000000;stroke-width:12;stroke-miterlimit:10;}
	.st1{fill:#FFFFFF;stroke:#000000;stroke-width:10;stroke-miterlimit:10;}
	.st2{font-family:'SegoeUI-Bold';}
	.st3{font-size:465.0141px;}
	.st4{font-size:389.3816px;}
	.st5{fill:#FFFFFF;stroke:#FFFFFF;stroke-width:10;stroke-miterlimit:10;}
	.st6{fill:none;stroke:#000000;stroke-width:10;stroke-miterlimit:10;}
</style>
<g>
	<path class="st0" d="M184.6,185c2.3,9.3,3.3,17,6,24c35.1,89.1,96.9,149.2,190.6,174c43.6,11.5,88.3,18.6,131.6,31.5
		c77.8,23.1,141.6,65.5,186.4,134.4c26.3,40.5,37,83.4,21,130.7c-3.1,9-7.4,17.4-12.9,25c-25.3,35.2-60.9,56.3-99.6,73.4
		c10.3-12.1,20.8-23.9,29.6-37c10.2-15.2,19-31.1,24.1-48.7c14.8-51,0.8-95.9-31.4-135.7c-45.8-56.6-106.8-87.5-177.3-101.3
		c-24.3-4.8-48.8-7.6-73.4-10c-35.1-3.4-66.7-16.9-94.7-38C229.9,366.1,194,312.5,182.4,244C179.2,225,179.9,205.9,184.6,185z"/>
	<path class="st0" d="M596.6,568.3c-36.7-31.2-80.3-44.4-127.2-48.1c-33.4-2.7-66.9-3.5-100.3-6c-44.3-3.3-85.7-15-119.8-45.6
		c-31.2-28-50.7-63.6-65.2-102.8c1.5,1.7,3,3.4,4.5,5.1c1.5,1.7,2.9,3.5,4.4,5.2c45.2,52.8,103,81.9,171.5,91.1
		c29.9,4,59.9,7.7,89.5,14.3c56.3,12.6,103.4,41.1,142.5,83.2C597.2,565.9,597.2,567.1,596.6,568.3z"/>
	<path class="st0" d="M614,600.5c-45.8-25.8-94.9-21.8-143.9-17.4c-32.7,2.9-65.5,6-98.2,0.4c-47.3-8.2-82.3-35.1-110-72.9
		c-2.3-3.1-4.4-6.3-7-10.1c1.4,0.1,2.4-0.1,3,0.4c42.9,32.6,92.3,44.8,145.1,46.1c27.6,0.7,55.3,0.7,82.9,2
		c46.4,2.1,88.6,15.9,123.9,47.5C611.2,597.8,612.6,599.2,614,600.5z"/>
	<path class="st1" d="M311.9,578.6c23.5,14.7,47.9,26.3,75.4,30.2c26.4,3.7,52.5,0.4,78.5-4.1c44.4-7.8,87.9-8.2,129.5,12.5
		c11,5.5,21.8,11.4,31.7,19c-11.8-3.9-23.3-8.5-35.5-10.8c-24.5-4.5-48.5-1.5-72.3,4.7c-19.5,5.1-38.6,11.2-58.4,15.1
		c-37.5,7.4-71.5-0.8-102.4-22.8C340.9,610,325.4,595.5,311.9,578.6z"/>
	<path class="st1" d="M615.7,658.8c-29-11.2-53.3-4.4-73.5,18.9c-6.4,7.3-13.2,14.3-20,21.3c-18.6,19.1-40.6,23.1-65.1,13.6
		c-29.5-11.4-53.3-31.3-76.6-52.1c14.8,4.8,29.2,10.4,44.4,13.4c26,5.2,50.3,1.2,72.9-12.8c2.8-1.7,5.7-3.2,8.3-5.1
		c33-25,67.1-23.9,101.9-4.1c3.1,1.8,6.3,3.3,9.5,5C618.1,658.7,617.7,659.5,615.7,658.8z"/>
	<path class="st1" d="M463.6,730.5c11.1,3.8,19.6,6.9,28.5,8c20.5,2.7,37.2-3.9,49.6-20.5c6.8-9.1,12.8-18.8,19.2-28.2
		c16.5-24.4,31.3-27.8,56.9-13.2c3.9,2.2,7.6,4.7,11.5,7.9c-26.8-2.9-41.8,12.2-52.7,33.3c-6.7,13-12.3,26.5-19.1,39.4
		c-13.4,25.5-28.4,29.2-52,13.1C490.1,759.9,477.7,746.3,463.6,730.5z"/>
	<path class="st0" d="M1753.7,185c-2.3,9.3-3.3,17-6,24c-35.1,89.1-96.9,149.2-190.6,174c-43.6,11.5-88.3,18.6-131.6,31.5
		c-77.8,23.1-141.6,65.5-186.4,134.4c-26.3,40.5-37,83.4-21,130.7c3.1,9,7.4,17.4,12.9,25c25.3,35.2,60.9,56.3,99.6,73.4
		c-10.3-12.1-20.8-23.9-29.6-37c-10.2-15.2-19-31.1-24.1-48.7c-14.8-51-0.8-95.9,31.4-135.7c45.8-56.6,106.8-87.5,177.3-101.3
		c24.3-4.8,48.8-7.6,73.4-10c35.1-3.4,66.7-16.9,94.7-38c54.9-41.3,90.8-94.9,102.4-163.5C1759.1,225,1758.4,205.9,1753.7,185z"/>
	<path class="st0" d="M1341.7,568.3c36.7-31.2,80.3-44.4,127.2-48.1c33.4-2.7,66.9-3.5,100.3-6c44.3-3.3,85.7-15,119.8-45.6
		c31.2-28,50.7-63.6,65.2-102.8c-1.5,1.7-3,3.4-4.5,5.1c-1.5,1.7-2.9,3.5-4.4,5.2c-45.2,52.8-103,81.9-171.5,91.1
		c-29.9,4-59.9,7.7-89.5,14.3c-56.3,12.6-103.4,41.1-142.5,83.2C1341.1,565.9,1341.1,567.1,1341.7,568.3z"/>
	<path class="st0" d="M1324.3,600.5c45.8-25.8,94.9-21.8,143.9-17.4c32.7,2.9,65.5,6,98.2,0.4c47.3-8.2,82.3-35.1,110-72.9
		c2.3-3.1,4.4-6.3,7-10.1c-1.4,0.1-2.4-0.1-3,0.4c-42.9,32.6-92.3,44.8-145.1,46.1c-27.6,0.7-55.3,0.7-82.9,2
		c-46.4,2.1-88.6,15.9-123.9,47.5C1327.1,597.8,1325.7,599.2,1324.3,600.5z"/>
	<path class="st0" d="M1626.4,578.6c-23.5,14.7-47.9,26.3-75.4,30.2c-26.4,3.7-52.5,0.4-78.5-4.1c-44.4-7.8-87.9-8.2-129.5,12.5
		c-11,5.5-21.8,11.4-31.7,19c11.8-3.9,23.3-8.5,35.5-10.8c24.5-4.5,48.5-1.5,72.3,4.7c19.5,5.1,38.6,11.2,58.4,15.1
		c37.5,7.4,71.5-0.8,102.4-22.8C1597.4,610,1613,595.5,1626.4,578.6z"/>
	<path class="st0" d="M1322.6,658.8c29-11.2,53.3-4.4,73.5,18.9c6.4,7.3,13.2,14.3,20,21.3c18.6,19.1,40.6,23.1,65.1,13.6
		c29.5-11.4,53.3-31.3,76.6-52.1c-14.8,4.8-29.2,10.4-44.4,13.4c-26,5.2-50.3,1.2-72.9-12.8c-2.8-1.7-5.7-3.2-8.3-5.1
		c-33-25-67.1-23.9-101.9-4.1c-3.1,1.8-6.3,3.3-9.5,5C1320.2,658.7,1320.6,659.5,1322.6,658.8z"/>
	<path class="st0" d="M1474.7,730.5c-11.1,3.8-19.6,6.9-28.5,8c-20.5,2.7-37.2-3.9-49.6-20.5c-6.8-9.1-12.8-18.8-19.2-28.2
		c-16.5-24.4-31.3-27.8-56.9-13.2c-3.9,2.2-7.6,4.7-11.5,7.9c26.8-2.9,41.8,12.2,52.7,33.3c6.7,13,12.3,26.5,19.1,39.4
		c13.4,25.5,28.4,29.2,52,13.1C1448.2,759.9,1460.6,746.3,1474.7,730.5z"/>
	<text transform="matrix(1 0 0 1 732.4683 730.3066)" class="st0 st2 st3">G</text>
	<text transform="matrix(1 0 0 1 948.7588 778.0117)" class="st0 st2 st4">A</text>
	<polygon class="st5" points="1066,751 1038,746 1067,649 1092,653 	"/>
	<line class="st6" x1="1085" y1="718" x2="1098" y2="669"/>
	<line class="st6" x1="1035.8" y1="719" x2="1048.8" y2="672"/>
</g>
</svg>
